<svg xmlns="http://www.w3.org/2000/svg" width="2009.355" height="2031.137" viewBox="0 0 2009.355 2031.137"><defs><style>.a{fill:#fff9f8;}</style></defs><path class="a" d="M1085.7-29.807c132.286,75.284,196.815,265.646,231.231,448.48,34.416,181.758,40.869,354.912-48.4,457.084-90.341,102.172-274.25,132.285-409.762,235.533C723.264,1215.611,638.3,1393.067,531.827,1421.03c-106.474,29.038-233.382-91.417-331.251-207.57-96.794-116.153-164.55-228-209.721-350.61C-55.391,739.169-79.052,605.808-27.429,511.165S151.1,362.747,260.8,279.934,460.844,85.27,607.111,9.986,954.495-105.092,1085.7-29.807Z" transform="matrix(0.809, 0.588, -0.588, 0.809, 883.638, 90.03)"/></svg>