<svg xmlns="http://www.w3.org/2000/svg" width="169.256" height="246.257" viewBox="0 0 169.256 246.257"><defs><style>.a{fill:#f05d05;}</style></defs><path class="a" d="M86.654,0C48.264,0,23.4,15.729,3.876,43.781a11.555,11.555,0,0,0,2.49,15.811L27.115,75.324a11.543,11.543,0,0,0,15.994-2c12.048-15.093,20.985-23.784,39.8-23.784,14.8,0,33.1,9.523,33.1,23.871,0,10.847-8.954,16.417-23.564,24.608-17.037,9.552-39.583,21.44-39.583,51.178v4.708a11.543,11.543,0,0,0,11.543,11.543H99.263a11.543,11.543,0,0,0,11.543-11.543v-2.777c0-20.614,60.25-21.473,60.25-77.257C171.057,31.867,127.48,0,86.654,0Zm-4.82,179.623a33.317,33.317,0,1,0,33.317,33.317A33.355,33.355,0,0,0,81.835,179.623Z" transform="translate(-1.8)"/></svg>