<svg height="335pt" preserveAspectRatio="xMidYMid meet" viewBox="0 0 335 335" width="335pt" xmlns="http://www.w3.org/2000/svg"><g transform="matrix(.1 0 0 -.1 0 335)"><path d="m1285 3309c-14-18-52-85-82-148-31-64-76-147-100-184-24-38-70-122-103-187s-73-134-90-154c-17-19-88-81-158-137-236-191-290-238-311-273-12-19-46-99-75-178-59-157-78-198-249-530l-117-226v-501-501l68-34 68-34 59 45c253 193 670 423 970 536 224 84 478 147 735 183 286 39 1051 27 1408-21l42-6v538 539l-42 40c-87 83-122 108-633 448-223 149-267 182-307 234-55 71-131 134-242 199-43 25-104 70-136 99-33 31-85 66-123 83-70 31-227 84-287 96-19 4-78 26-130 50-135 61-133 61-165 24zm269-535c3-9 6-55 6-102 0-48 3-123 6-168l7-81 117-17c65-9 153-26 196-37 151-40 314-133 314-180 0-11-20-41-45-67-25-25-45-49-45-54 0-12 30-25 119-48 129-35 185-96 150-162-6-11-45-36-87-55l-76-35 235-48c352-72 664-155 790-212 68-30 69-31 69-68 0-36-2-39-55-61l-55-24v-72-72l60-12c33-6 60-14 60-18 0-3-6-28-13-56l-13-50h-115c-63 0-275 6-473 14-635 25-889 1-1321-124-272-79-481-165-654-269-60-36-112-66-115-66-13 0 17 46 92 140 94 119 112 157 112 240 0 102-3 106-73 120-133 26-177 42-220 80-23 21-39 41-35 45s68 10 142 13c74 2 139 8 145 12 6 3 14 43 18 87l6 80-36 7c-19 4-58 13-86 22-46 13-51 18-51 43s6 31 43 46c34 14 413 97 555 122 17 3 32 9 32 12 0 4-75 17-167 30-197 26-304 51-390 92-59 28-113 77-113 102 0 7 29 31 65 54 44 29 76 60 102 100 25 37 54 66 81 82 42 23 43 24 23 38-15 10-21 25-21 53 0 47 22 67 114 104 81 32 157 44 316 51 69 3 143 8 166 11l40 5 23 152c12 84 25 167 27 185 5 34 18 42 28 16z"/><path d="m1053 2180c-83-17-106-46-80-100l15-30-70-37c-77-40-98-68-80-107 20-45 104-66 305-77 181-10 260-7 132 5-201 19-292 43-336 87-65 65 16 76 676 95 250 8 262 9 165 16-58 5-236 11-397 16-272 7-293 8-319 28-38 28-40 40-10 59 22 15 70 17 403 18 208 0 335 2 283 4s-188 10-301 18c-223 16-321 17-386 5z"/><path d="m1120 1511c-63-9-108-28-123-53-8-12-5-26 16-56l26-40-64-31c-70-32-88-61-67-106 22-47 88-58 382-62 146-2 315 0 375 5 103 9 96 9-120 11-347 2-503 21-529 64-9 15-6 21 14 37 14 11 41 24 60 29s314 13 655 18c616 8 618 8 330 15-647 16-858 26-911 42-93 29-95 66-4 85 33 7 248 9 637 6l588-4-345 19c-413 22-844 32-920 21z"/></g></svg>